# xmcd
#
# Track frame offsets:
#	150
#	9600
#	20125
#	32505
#	46770
#	70215
#	88785
#	99290
#	107510
#	121580
#	133445
#	142565
#	151435
#	168480
#	178790
#	191770
#	198085
#	208395
#	221695
#	229835
#	239700
#	263710
#	283905
#	300370
#	314605
#
# Disc length: 4339 seconds
#
# Revision: 0
# Processed by: cddbd v1.5.2PL0 Copyright (c) Steve Scherf et al.
# Submitted via: EasyCDDAExtractor 10.0.2.1
#
DISCID=6810f119
DTITLE=artist - 6810F119
DYEAR=1900
DGENRE=
TTITLE0=track title 1
TTITLE1=track title 2
TTITLE2=Track03
TTITLE3=Track04
TTITLE4=Track05
TTITLE5=Track06
TTITLE6=Track07
TTITLE7=Track08
TTITLE8=Track09
TTITLE9=Track10
TTITLE10=Track11
TTITLE11=Track12
TTITLE12=Track13
TTITLE13=Track14
TTITLE14=Track15
TTITLE15=Track16
TTITLE16=Track17
TTITLE17=Track18
TTITLE18=Track19
TTITLE19=Track20
TTITLE20=Track21
TTITLE21=Track22
TTITLE22=Track23
TTITLE23=Track24
TTITLE24=Track25
EXTD=
EXTT0=
EXTT1=
EXTT2=
EXTT3=
EXTT4=
EXTT5=
EXTT6=
EXTT7=
EXTT8=
EXTT9=
EXTT10=
EXTT11=
EXTT12=
EXTT13=
EXTT14=
EXTT15=
EXTT16=
EXTT17=
EXTT18=
EXTT19=
EXTT20=
EXTT21=
EXTT22=
EXTT23=
EXTT24=
PLAYORDER=
